<?xml version="1.0" standalone="no"?>
<!DOCTYPE svg PUBLIC "-//W3C//DTD SVG 20010904//EN"
 "http://www.w3.org/TR/2001/REC-SVG-20010904/DTD/svg10.dtd">
<svg version="1.0" xmlns="http://www.w3.org/2000/svg"
 width="1048.000000pt" height="292.000000pt" viewBox="0 0 1048.000000 292.000000"
 preserveAspectRatio="xMidYMid meet">

<g transform="translate(0.000000,292.000000) scale(0.100000,-0.100000)"
fill="#000000" stroke="none">
<path d="M3823 2248 c-169 -538 -171 -543 -196 -540 -35 4 -44 -16 -13 -28 14
-5 26 -13 25 -17 0 -5 -76 -246 -168 -538 -92 -291 -166 -533 -164 -537 2 -5
314 -8 693 -8 379 0 691 3 693 8 2 4 -72 246 -164 537 -92 292 -168 533 -168
538 -1 4 11 12 25 17 31 12 22 32 -13 28 -25 -3 -27 2 -196 540 -94 298 -173
542 -177 542 -4 0 -83 -244 -177 -542z m336 -41 c85 -270 156 -498 158 -504 3
-7 -7 -17 -22 -23 -32 -12 -23 -34 10 -26 22 6 26 -1 54 -87 113 -344 231
-741 223 -746 -86 -56 -126 -106 -137 -172 l-7 -39 -438 0 -438 0 -7 39 c-11
66 -51 116 -137 172 -8 5 110 402 223 746 28 86 32 93 54 87 33 -8 42 14 10
26 -15 6 -25 16 -22 23 2 6 73 234 158 504 85 271 156 493 159 493 3 0 74
-222 159 -493z m-703 -1449 c37 -33 73 -97 74 -130 0 -16 -11 -18 -88 -18 -49
0 -91 3 -94 6 -5 4 18 83 47 162 7 19 21 14 61 -20z m1175 -55 c15 -45 25 -84
21 -87 -3 -3 -45 -6 -94 -6 -82 0 -88 1 -88 20 0 50 92 168 123 157 6 -2 23
-40 38 -84z"/>
<path d="M1146 2265 c-164 -283 -300 -515 -302 -515 -2 0 -13 6 -24 12 -15 10
-22 10 -31 1 -9 -9 -6 -15 15 -24 15 -7 25 -17 23 -23 -3 -6 -136 -238 -296
-515 -160 -277 -291 -510 -291 -518 0 -11 104 -13 600 -13 l600 0 0 -30 c0
-20 5 -30 15 -30 10 0 15 10 15 30 l0 30 605 0 c333 0 605 2 605 4 0 3 -133
235 -296 517 -163 281 -298 517 -301 524 -2 7 5 16 16 20 12 3 21 13 21 21 0
17 -22 18 -38 2 -8 -8 -15 -8 -21 -3 -5 6 -140 237 -300 515 -160 278 -297
506 -305 508 -8 2 -125 -192 -310 -513z m358 392 c25 -43 46 -82 46 -87 0 -10
-50 -22 -95 -22 -44 0 -95 12 -95 21 0 11 92 173 95 169 2 -2 24 -38 49 -81z
m-49 -132 c39 1 81 3 94 5 23 5 41 -24 256 -395 l232 -400 -24 -15 c-12 -8
-23 -18 -23 -22 0 -15 20 -18 39 -6 11 7 23 10 26 7 3 -3 108 -185 235 -403
l229 -398 -29 -24 c-33 -28 -80 -117 -80 -151 l0 -23 -469 0 -470 0 -3 27 c-4
39 -28 42 -28 4 l0 -31 -470 0 -470 0 0 23 c0 34 -47 123 -81 151 l-29 25 230
398 c231 398 235 404 279 392 24 -7 22 16 -3 31 l-23 15 211 365 c116 201 221
382 234 403 19 33 25 37 45 30 12 -4 54 -8 92 -8z m-1021 -1713 c15 -22 29
-56 33 -76 l6 -36 -98 0 c-53 0 -95 4 -93 8 2 5 23 43 47 85 50 86 57 87 105
19z m2160 -44 l38 -68 -96 0 c-92 0 -96 1 -96 22 0 32 38 105 67 128 30 24 26
27 87 -82z"/>
<path d="M1542 2398 c-28 -28 -3 -72 39 -66 30 4 47 33 33 56 -14 21 -55 27
-72 10z m63 -8 c13 -20 -6 -50 -31 -50 -26 0 -40 20 -30 45 6 17 51 20 61 5z"/>
<path d="M1261 2324 c-24 -30 -28 -97 -9 -139 26 -57 108 -35 108 30 0 18 -7
41 -16 49 -21 22 -27 20 -14 -3 15 -28 12 -77 -5 -91 -23 -19 -49 -7 -59 27
-7 25 -5 38 9 60 18 27 18 28 0 13 -17 -14 -18 -13 -11 15 4 17 15 38 23 48 9
9 11 17 5 17 -6 0 -20 -12 -31 -26z"/>
<path d="M1334 2333 c3 -16 16 -22 16 -8 0 3 0 10 0 15 0 6 -4 10 -9 10 -5 0
-8 -8 -7 -17z"/>
<path d="M1417 2335 c-36 -36 -27 -154 14 -176 29 -15 64 -4 77 26 26 56 6
165 -29 165 -6 0 -3 -10 5 -22 18 -25 21 -103 6 -142 -10 -28 -38 -34 -58 -14
-15 15 -16 132 -2 159 13 23 7 25 -13 4z"/>
<path d="M856 994 c-9 -8 -16 -22 -16 -29 0 -16 27 -45 41 -45 25 0 49 23 49
45 0 14 -8 29 -19 35 -27 14 -37 13 -55 -6z m58 -16 c8 -14 7 -21 -6 -34 -30
-30 -75 9 -48 42 16 18 39 15 54 -8z"/>
<path d="M2332 994 c-26 -47 36 -86 70 -45 13 17 15 27 8 42 -13 24 -65 26
-78 3z m63 -24 c0 -18 -6 -26 -23 -28 -24 -4 -38 18 -28 44 3 9 15 14 28 12
17 -2 23 -10 23 -28z"/>
<path d="M2063 965 c-28 -20 -47 -78 -39 -120 7 -35 29 -65 47 -65 6 0 3 7 -6
16 -20 21 -16 83 6 97 9 6 24 7 33 4 23 -9 22 -92 -1 -107 -17 -10 -16 -10 2
-8 27 4 50 48 41 82 -9 34 -50 55 -77 38 -16 -10 -19 -9 -19 6 0 26 27 60 53
65 20 4 20 4 2 6 -11 0 -30 -6 -42 -14z"/>
<path d="M2201 954 c-26 -33 -29 -118 -5 -152 22 -31 36 -27 18 6 -16 31 -18
99 -4 136 11 30 54 36 64 10 10 -25 7 -134 -4 -154 -8 -16 -8 -18 5 -14 20 8
38 80 30 123 -13 71 -66 94 -104 45z"/>
<path d="M582 963 c-20 -8 -42 -59 -42 -97 0 -94 78 -132 117 -56 17 34 -8 89
-40 90 -5 0 -1 -7 7 -16 20 -19 21 -78 1 -94 -40 -33 -77 32 -49 86 13 24 13
25 -2 14 -13 -12 -14 -10 -9 16 4 16 16 37 27 47 20 17 16 21 -10 10z"/>
<path d="M634 953 c3 -16 16 -22 16 -8 0 3 0 10 0 15 0 6 -4 10 -9 10 -5 0 -8
-8 -7 -17z"/>
<path d="M716 948 c-24 -34 -21 -133 4 -158 11 -11 29 -20 40 -20 11 0 29 9
40 20 37 37 20 180 -21 180 -6 0 -3 -10 5 -22 18 -26 22 -119 6 -149 -12 -21
-40 -25 -58 -7 -18 18 -16 143 4 162 8 9 11 16 5 16 -5 0 -17 -10 -25 -22z"/>
<path d="M2126 961 c-4 -7 -5 -15 -2 -18 9 -9 19 4 14 18 -4 11 -6 11 -12 0z"/>
<path d="M5340 2771 c0 -5 70 -220 155 -479 85 -258 155 -475 155 -480 0 -6
-26 -19 -57 -28 -65 -20 -78 -28 -69 -43 4 -6 26 -3 63 10 67 23 83 24 83 5 0
-9 -26 -23 -66 -36 -36 -12 -64 -26 -62 -32 5 -14 8 -14 76 6 34 11 64 17 66
15 2 -2 75 -219 161 -482 l157 -477 1054 0 1054 0 0 -70 c0 -56 3 -70 15 -70
12 0 15 14 15 70 l0 70 1050 0 c839 0 1050 3 1050 13 0 7 -487 212 -1167 491
-643 264 -1176 483 -1185 488 -15 7 -15 13 8 68 14 34 22 65 19 70 -8 13 -25
13 -25 0 0 -5 -11 -34 -24 -65 -18 -39 -29 -53 -39 -49 -13 4 -11 15 9 64 27
68 29 80 11 80 -6 0 -23 -27 -35 -60 -14 -34 -30 -60 -38 -60 -20 0 -18 20 10
83 21 46 23 56 10 61 -9 4 -18 -3 -23 -17 -26 -67 -44 -107 -47 -107 -2 0
-409 167 -906 371 -1297 533 -1459 599 -1469 599 -5 0 -9 -4 -9 -9z m250 -118
c74 -30 139 -59 144 -63 11 -10 -41 -94 -81 -132 -34 -32 -123 -88 -139 -88
-7 0 -37 75 -70 173 -31 94 -59 178 -62 185 -4 10 5 9 34 -3 22 -9 100 -41
174 -72z m226 -95 c9 -14 -46 -99 -101 -154 -49 -50 -147 -114 -173 -114 -7 0
-16 10 -21 23 -7 19 -3 25 40 45 64 30 146 107 184 169 21 37 34 49 47 45 10
-2 21 -9 24 -14z m73 -27 c32 -20 -88 -179 -190 -250 -84 -59 -137 -80 -150
-60 -16 26 -9 35 50 63 77 36 160 112 212 192 42 64 52 71 78 55z m928 -382
c483 -198 882 -364 886 -368 5 -5 -3 -36 -17 -70 -15 -37 -21 -63 -15 -67 14
-8 14 -8 46 64 20 45 32 59 41 53 11 -6 8 -21 -12 -71 -20 -49 -23 -66 -14
-72 8 -5 16 -1 20 10 4 9 17 38 27 65 12 27 27 47 36 47 19 0 19 1 -10 -72
-17 -41 -22 -65 -15 -72 13 -13 14 -11 43 59 15 38 29 59 38 57 8 -1 427 -172
932 -379 850 -348 918 -378 912 -397 -3 -12 -12 -51 -18 -88 l-11 -68 -773 0
-773 0 0 70 c0 56 -3 70 -15 70 -12 0 -15 -14 -15 -70 l0 -70 -749 0 -750 0
-6 47 c-20 146 -72 252 -174 353 -142 141 -334 203 -519 167 l-72 -14 -60 187
c-33 103 -60 192 -60 198 0 6 29 20 64 32 45 15 63 25 60 35 -5 11 -16 10 -61
-6 -67 -23 -83 -24 -83 -5 0 9 26 23 64 36 45 15 63 25 60 35 -5 11 -16 10
-61 -6 -31 -10 -62 -19 -69 -19 -11 0 -124 315 -124 345 0 6 35 28 78 50 94
48 204 153 247 237 17 32 33 58 37 58 4 0 402 -162 885 -361z m-692 -834 c238
-50 413 -240 449 -487 l7 -48 -40 0 c-38 0 -41 2 -41 28 0 16 -7 53 -16 83
-53 178 -197 313 -373 350 -54 11 -191 8 -222 -5 -11 -5 -18 2 -26 29 -13 41
-14 40 57 54 68 13 128 12 205 -4z m-6 -106 c109 -25 219 -103 281 -199 35
-55 70 -155 70 -201 l0 -29 -223 0 -222 0 -68 203 c-37 111 -67 208 -67 214 0
6 10 14 23 16 43 8 163 6 206 -4z m3798 -333 c87 -36 174 -72 193 -80 33 -14
22 -15 -177 -16 l-213 0 0 28 c0 15 5 45 11 67 14 56 18 65 24 65 2 0 76 -29
162 -64z"/>
<path d="M7322 334 c-25 -17 -30 -65 -9 -83 8 -6 31 -14 52 -19 46 -9 65 -33
46 -56 -23 -28 -91 -13 -91 19 0 8 -7 15 -15 15 -21 0 -19 -26 5 -50 25 -25
101 -28 124 -4 19 19 21 67 4 82 -7 5 -33 15 -58 22 -50 13 -64 28 -48 47 17
21 65 16 82 -8 17 -25 36 -17 29 12 -10 37 -81 51 -121 23z"/>
<path d="M820 240 l0 -100 75 0 c60 0 75 3 75 15 0 12 -14 15 -65 15 l-65 0 0
30 c0 30 1 30 55 30 42 0 55 3 55 15 0 12 -13 15 -56 15 -54 0 -55 0 -52 28 3
26 6 27 61 30 81 4 71 22 -13 22 l-70 0 0 -100z"/>
<path d="M1310 325 c0 -8 5 -15 10 -15 6 0 10 7 10 15 0 8 -4 15 -10 15 -5 0
-10 -7 -10 -15z"/>
<path d="M1370 240 c0 -82 3 -100 15 -100 12 0 15 18 15 100 0 82 -3 100 -15
100 -12 0 -15 -18 -15 -100z"/>
<path d="M2070 240 c0 -82 3 -100 15 -100 12 0 15 18 15 100 0 82 -3 100 -15
100 -12 0 -15 -18 -15 -100z"/>
<path d="M3450 240 c0 -82 3 -100 15 -100 12 0 15 18 15 100 0 82 -3 100 -15
100 -12 0 -15 -18 -15 -100z"/>
<path d="M4250 240 c0 -60 4 -100 10 -100 6 0 10 40 10 100 0 60 -4 100 -10
100 -6 0 -10 -40 -10 -100z"/>
<path d="M7780 240 c0 -60 4 -100 10 -100 6 0 10 40 10 100 0 60 -4 100 -10
100 -6 0 -10 -40 -10 -100z"/>
<path d="M1590 311 c0 -11 -6 -22 -12 -24 -10 -4 -10 -7 -1 -14 6 -5 13 -35
15 -68 3 -53 5 -60 26 -63 12 -2 22 1 22 7 0 6 -4 11 -10 11 -15 0 -13 107 3
114 10 5 10 7 0 12 -7 3 -13 14 -13 25 0 10 -7 19 -15 19 -8 0 -15 -9 -15 -19z"/>
<path d="M1005 268 c-8 -13 -15 -39 -15 -59 0 -46 28 -73 70 -67 28 4 30 3 30
-29 0 -23 5 -33 15 -33 12 0 15 18 15 104 l0 103 -50 2 c-40 0 -52 -3 -65 -21z
m74 -12 c17 -20 10 -77 -11 -90 -37 -23 -69 52 -38 89 16 19 34 19 49 1z"/>
<path d="M1150 226 c0 -76 9 -86 73 -84 l47 2 0 73 c0 84 -14 97 -23 21 -7
-56 -26 -84 -51 -75 -12 5 -16 21 -16 67 0 47 -3 60 -15 60 -12 0 -15 -14 -15
-64z"/>
<path d="M1310 215 c0 -43 4 -75 10 -75 6 0 10 32 10 75 0 43 -4 75 -10 75 -6
0 -10 -32 -10 -75z"/>
<path d="M1440 271 c-13 -26 7 -39 24 -16 15 21 50 16 54 -8 3 -13 -3 -17 -25
-17 -43 0 -65 -20 -61 -55 3 -30 4 -30 71 -31 37 -1 67 2 67 7 0 5 -4 9 -10 9
-5 0 -10 24 -10 53 0 29 -5 58 -12 65 -20 20 -86 15 -98 -7z m80 -74 c0 -19
-21 -37 -42 -37 -21 0 -25 35 -5 43 23 10 47 7 47 -6z"/>
<path d="M1677 272 c-23 -26 -22 -94 1 -115 25 -22 75 -21 95 1 21 23 21 32 2
32 -8 0 -15 -4 -15 -9 0 -16 -40 -23 -55 -11 -30 25 -17 40 35 40 46 0 50 2
50 23 0 51 -78 77 -113 39z m71 -14 c20 -20 14 -28 -23 -28 -19 0 -35 4 -35 8
0 12 22 32 35 32 6 0 16 -5 23 -12z"/>
<path d="M1820 214 c0 -59 3 -74 15 -74 12 0 15 13 15 55 0 49 3 57 25 67 37
16 31 27 -15 26 l-40 0 0 -74z"/>
<path d="M1927 284 c-10 -10 -9 -44 2 -44 5 0 12 7 15 16 4 10 15 14 33 12 41
-5 36 -31 -7 -38 -20 -4 -41 -10 -48 -14 -16 -9 -15 -51 1 -64 15 -12 127 -13
127 -1 0 5 -4 9 -10 9 -5 0 -10 28 -12 63 l-3 62 -45 3 c-25 2 -49 0 -53 -4z
m83 -83 c0 -15 -30 -41 -46 -41 -20 0 -30 30 -13 41 19 12 59 11 59 0z"/>
<path d="M3522 278 c-28 -28 -11 -58 43 -75 17 -5 30 -16 30 -24 0 -21 -34
-23 -56 -3 -22 20 -38 11 -23 -14 13 -21 80 -28 100 -11 8 7 14 24 12 37 -2
20 -12 29 -45 40 -47 15 -58 42 -19 42 14 0 28 -4 31 -10 9 -15 25 -12 25 4 0
26 -75 37 -98 14z"/>
<path d="M3666 274 c-10 -9 -16 -33 -16 -59 0 -26 6 -50 16 -59 21 -22 77 -20
97 2 22 24 22 95 1 116 -20 21 -78 21 -98 0z m84 -30 c12 -31 -6 -77 -31 -82
-28 -5 -52 27 -45 62 11 51 60 64 76 20z"/>
<path d="M3822 278 c-7 -7 -12 -22 -12 -34 0 -17 10 -26 43 -36 23 -8 42 -21
42 -29 0 -20 -54 -24 -61 -5 -6 15 -34 23 -34 10 0 -25 24 -44 58 -44 41 0 56
7 65 32 8 22 -12 47 -48 56 -17 5 -31 16 -33 25 -4 20 20 22 48 5 24 -15 37
-4 20 17 -15 18 -71 20 -88 3z"/>
<path d="M3959 273 c-8 -9 -14 -35 -14 -58 0 -52 18 -75 60 -75 31 0 65 25 65
48 0 18 -11 15 -36 -9 -13 -12 -30 -19 -38 -16 -21 8 -31 54 -17 83 12 27 48
33 57 9 4 -8 12 -15 20 -15 17 0 17 5 4 31 -14 25 -81 27 -101 2z"/>
<path d="M4108 273 c-31 -36 -28 -104 5 -125 26 -16 76 -8 92 14 19 28 2 37
-24 14 -23 -21 -48 -20 -60 3 -14 26 -5 31 51 31 53 0 62 15 32 58 -19 27 -74
30 -96 5z m70 -15 c20 -20 14 -28 -23 -28 -24 0 -35 5 -35 14 0 24 39 33 58
14z"/>
<path d="M4320 270 c-24 -24 -26 -77 -4 -108 13 -19 24 -22 56 -20 25 2 45 10
52 20 15 24 0 34 -22 15 -25 -22 -49 -21 -62 2 -15 30 -14 31 45 31 61 0 70
14 39 58 -20 29 -76 30 -104 2z m78 -12 c21 -21 13 -28 -28 -28 -22 0 -40 4
-40 8 0 14 23 32 40 32 9 0 21 -5 28 -12z"/>
<path d="M4472 278 c-28 -28 -11 -58 43 -75 17 -5 30 -16 30 -24 0 -21 -34
-23 -56 -3 -22 20 -38 11 -23 -14 13 -21 80 -28 100 -11 8 7 14 24 12 37 -2
20 -12 29 -45 40 -47 15 -58 42 -19 42 14 0 28 -4 31 -10 9 -15 25 -12 25 4 0
26 -75 37 -98 14z"/>
<path d="M7489 273 c-8 -9 -14 -35 -14 -58 0 -52 18 -75 60 -75 31 0 65 25 65
48 0 18 -11 15 -36 -9 -13 -12 -30 -19 -38 -16 -21 8 -31 54 -17 83 12 27 48
33 57 9 4 -8 12 -15 20 -15 17 0 17 5 4 31 -14 25 -81 27 -101 2z"/>
<path d="M7630 271 c-13 -26 7 -39 24 -16 15 21 50 16 54 -8 3 -13 -3 -17 -25
-17 -43 0 -65 -20 -61 -55 3 -30 4 -30 71 -31 37 -1 67 2 67 7 0 5 -4 9 -10 9
-5 0 -10 24 -10 53 0 29 -5 58 -12 65 -20 20 -86 15 -98 -7z m80 -74 c0 -19
-21 -37 -42 -37 -21 0 -25 35 -5 43 23 10 47 7 47 -6z"/>
<path d="M7850 270 c-24 -24 -26 -77 -4 -108 13 -19 24 -22 56 -20 25 2 45 10
52 20 15 24 0 34 -22 15 -25 -22 -49 -21 -62 2 -15 30 -14 31 45 31 61 0 70
14 39 58 -20 29 -76 30 -104 2z m78 -12 c21 -21 13 -28 -28 -28 -22 0 -40 4
-40 8 0 14 23 32 40 32 9 0 21 -5 28 -12z"/>
<path d="M8000 213 c0 -42 4 -73 10 -73 6 0 10 21 10 46 0 54 14 84 39 84 24
0 31 -19 31 -81 0 -37 4 -49 15 -49 18 0 21 82 5 125 -9 23 -14 25 -60 24
l-50 -2 0 -74z"/>
<path d="M8168 273 c-31 -36 -28 -104 5 -125 26 -16 76 -8 92 14 19 28 2 37
-24 14 -23 -21 -48 -20 -60 3 -14 26 -5 31 51 31 53 0 62 15 32 58 -19 27 -74
30 -96 5z m70 -15 c20 -20 14 -28 -23 -28 -24 0 -35 5 -35 14 0 24 39 33 58
14z"/>
</g>
</svg>
